<svg xmlns="http://www.w3.org/2000/svg" xmlns:xlink="http://www.w3.org/1999/xlink" width="200" zoomAndPan="magnify" viewBox="0 0 150 30.000001" height="40" preserveAspectRatio="xMidYMid meet" version="1.0"><defs><g/><clipPath id="98e7986692"><path d="M 4 0 L 137 0 L 137 29.03125 L 4 29.03125 Z M 4 0 " clip-rule="nonzero"/></clipPath><clipPath id="1edf10b8cc"><path d="M 34 0 L 132.898438 0 L 132.898438 28 L 34 28 Z M 34 0 " clip-rule="nonzero"/></clipPath><clipPath id="41291bd637"><path d="M 84 7 L 98.898438 7 L 98.898438 22 L 84 22 Z M 84 7 " clip-rule="nonzero"/></clipPath><clipPath id="d29635d500"><rect x="0" width="99" y="0" height="28"/></clipPath><clipPath id="2f8dad32b1"><path d="M 10 10 L 15 10 L 15 15 L 10 15 Z M 10 10 " clip-rule="nonzero"/></clipPath><clipPath id="c053e2022c"><path d="M -4.671875 5.121094 L 27.304688 -8.097656 L 40.519531 23.875 L 8.546875 37.09375 Z M -4.671875 5.121094 " clip-rule="nonzero"/></clipPath><clipPath id="3f13abac18"><path d="M -4.671875 5.121094 L 27.304688 -8.097656 L 40.519531 23.875 L 8.546875 37.09375 Z M -4.671875 5.121094 " clip-rule="nonzero"/></clipPath><clipPath id="6e760bf831"><path d="M 19 14 L 24 14 L 24 19 L 19 19 Z M 19 14 " clip-rule="nonzero"/></clipPath><clipPath id="b2cb4ffa88"><path d="M -4.671875 5.121094 L 27.304688 -8.097656 L 40.519531 23.875 L 8.546875 37.09375 Z M -4.671875 5.121094 " clip-rule="nonzero"/></clipPath><clipPath id="ae805503de"><path d="M -4.671875 5.121094 L 27.304688 -8.097656 L 40.519531 23.875 L 8.546875 37.09375 Z M -4.671875 5.121094 " clip-rule="nonzero"/></clipPath><clipPath id="6a87205f0f"><path d="M 4 0 L 32 0 L 32 29 L 4 29 Z M 4 0 " clip-rule="nonzero"/></clipPath><clipPath id="d1eaa026b5"><path d="M -4.671875 5.121094 L 27.304688 -8.097656 L 40.519531 23.875 L 8.546875 37.09375 Z M -4.671875 5.121094 " clip-rule="nonzero"/></clipPath><clipPath id="5d531cf4c2"><path d="M -4.671875 5.121094 L 27.304688 -8.097656 L 40.519531 23.875 L 8.546875 37.09375 Z M -4.671875 5.121094 " clip-rule="nonzero"/></clipPath><clipPath id="50e01a215b"><rect x="0" width="133" y="0" height="30"/></clipPath></defs><g clip-path="url(#98e7986692)"><g transform="matrix(1, 0, 0, 1, 4, 0.000000000000005692)"><g clip-path="url(#50e01a215b)"><g clip-path="url(#1edf10b8cc)"><g transform="matrix(1, 0, 0, 1, 34, 0.000000000000005662)"><g clip-path="url(#d29635d500)"><g fill="#000000" fill-opacity="1"><g transform="translate(0.761782, 21.580657)"><g><path d="M 8.796875 0.296875 C 7.253906 0.296875 5.867188 -0.0234375 4.640625 -0.671875 C 3.421875 -1.328125 2.457031 -2.226562 1.75 -3.375 C 1.050781 -4.53125 0.703125 -5.832031 0.703125 -7.28125 C 0.703125 -8.71875 1.050781 -10.007812 1.75 -11.15625 C 2.457031 -12.3125 3.421875 -13.210938 4.640625 -13.859375 C 5.867188 -14.515625 7.253906 -14.84375 8.796875 -14.84375 C 10.328125 -14.84375 11.707031 -14.515625 12.9375 -13.859375 C 14.164062 -13.210938 15.128906 -12.3125 15.828125 -11.15625 C 16.523438 -10.007812 16.875 -8.71875 16.875 -7.28125 C 16.875 -5.832031 16.523438 -4.53125 15.828125 -3.375 C 15.128906 -2.226562 14.164062 -1.328125 12.9375 -0.671875 C 11.707031 -0.0234375 10.328125 0.296875 8.796875 0.296875 Z M 8.796875 -3.125 C 9.523438 -3.125 10.1875 -3.296875 10.78125 -3.640625 C 11.375 -3.984375 11.84375 -4.46875 12.1875 -5.09375 C 12.539062 -5.726562 12.71875 -6.457031 12.71875 -7.28125 C 12.71875 -8.09375 12.539062 -8.8125 12.1875 -9.4375 C 11.84375 -10.070312 11.375 -10.5625 10.78125 -10.90625 C 10.1875 -11.257812 9.523438 -11.4375 8.796875 -11.4375 C 8.054688 -11.4375 7.390625 -11.257812 6.796875 -10.90625 C 6.203125 -10.5625 5.726562 -10.070312 5.375 -9.4375 C 5.03125 -8.8125 4.859375 -8.09375 4.859375 -7.28125 C 4.859375 -6.457031 5.03125 -5.726562 5.375 -5.09375 C 5.726562 -4.46875 6.203125 -3.984375 6.796875 -3.640625 C 7.390625 -3.296875 8.054688 -3.125 8.796875 -3.125 Z M 8.796875 -3.125 "/></g></g></g><g fill="#000000" fill-opacity="1"><g transform="translate(18.335587, 21.580657)"><g><path d="M 5.5625 -10.84375 L 8.25 -10.84375 L 8.25 -7.890625 L 5.671875 -7.890625 L 5.671875 0 L 1.71875 0 L 1.71875 -7.890625 L 0.078125 -7.890625 L 0.078125 -10.84375 L 1.71875 -10.84375 L 1.71875 -11.140625 C 1.71875 -12.515625 2.128906 -13.601562 2.953125 -14.40625 C 3.785156 -15.207031 4.941406 -15.609375 6.421875 -15.609375 C 6.921875 -15.609375 7.40625 -15.554688 7.875 -15.453125 C 8.34375 -15.359375 8.734375 -15.21875 9.046875 -15.03125 L 8.0625 -12.234375 C 7.675781 -12.460938 7.28125 -12.578125 6.875 -12.578125 C 6.457031 -12.578125 6.132812 -12.453125 5.90625 -12.203125 C 5.675781 -11.953125 5.5625 -11.582031 5.5625 -11.09375 Z M 5.5625 -10.84375 "/></g></g></g><g fill="#000000" fill-opacity="1"><g transform="translate(26.769358, 21.580657)"><g><path d="M 12.78125 -5.609375 C 12.78125 -5.578125 12.757812 -5.253906 12.71875 -4.640625 L 4.53125 -4.640625 C 4.695312 -4.054688 5.019531 -3.609375 5.5 -3.296875 C 5.976562 -2.984375 6.578125 -2.828125 7.296875 -2.828125 C 7.835938 -2.828125 8.304688 -2.898438 8.703125 -3.046875 C 9.097656 -3.203125 9.492188 -3.453125 9.890625 -3.796875 L 11.96875 -1.640625 C 10.875 -0.421875 9.273438 0.1875 7.171875 0.1875 C 5.859375 0.1875 4.703125 -0.0625 3.703125 -0.5625 C 2.703125 -1.0625 1.925781 -1.753906 1.375 -2.640625 C 0.832031 -3.523438 0.5625 -4.53125 0.5625 -5.65625 C 0.5625 -6.757812 0.828125 -7.75 1.359375 -8.625 C 1.890625 -9.507812 2.625 -10.203125 3.5625 -10.703125 C 4.507812 -11.203125 5.570312 -11.453125 6.75 -11.453125 C 7.875 -11.453125 8.894531 -11.21875 9.8125 -10.75 C 10.726562 -10.289062 11.453125 -9.617188 11.984375 -8.734375 C 12.515625 -7.859375 12.78125 -6.816406 12.78125 -5.609375 Z M 6.78125 -8.640625 C 6.164062 -8.640625 5.65625 -8.46875 5.25 -8.125 C 4.84375 -7.78125 4.582031 -7.3125 4.46875 -6.71875 L 9.078125 -6.71875 C 8.972656 -7.3125 8.710938 -7.78125 8.296875 -8.125 C 7.890625 -8.46875 7.382812 -8.640625 6.78125 -8.640625 Z M 6.78125 -8.640625 "/></g></g></g><g fill="#000000" fill-opacity="1"><g transform="translate(40.105523, 21.580657)"><g><path d="M 5.03125 -9.90625 C 5.425781 -10.425781 5.945312 -10.8125 6.59375 -11.0625 C 7.238281 -11.320312 7.976562 -11.453125 8.8125 -11.453125 L 8.8125 -7.890625 C 8.445312 -7.929688 8.148438 -7.953125 7.921875 -7.953125 C 7.078125 -7.953125 6.414062 -7.722656 5.9375 -7.265625 C 5.457031 -6.816406 5.21875 -6.117188 5.21875 -5.171875 L 5.21875 0 L 1.265625 0 L 1.265625 -11.265625 L 5.03125 -11.265625 Z M 5.03125 -9.90625 "/></g></g></g><g fill="#000000" fill-opacity="1"><g transform="translate(49.307887, 21.580657)"><g><path d="M 9.046875 -0.453125 C 8.710938 -0.242188 8.304688 -0.0859375 7.828125 0.015625 C 7.347656 0.128906 6.835938 0.1875 6.296875 0.1875 C 4.828125 0.1875 3.695312 -0.171875 2.90625 -0.890625 C 2.113281 -1.609375 1.71875 -2.679688 1.71875 -4.109375 L 1.71875 -7.890625 L 0.078125 -7.890625 L 0.078125 -10.84375 L 1.71875 -10.84375 L 1.71875 -13.78125 L 5.671875 -13.78125 L 5.671875 -10.84375 L 8.25 -10.84375 L 8.25 -7.890625 L 5.671875 -7.890625 L 5.671875 -4.15625 C 5.671875 -3.75 5.773438 -3.429688 5.984375 -3.203125 C 6.203125 -2.984375 6.492188 -2.875 6.859375 -2.875 C 7.316406 -2.875 7.71875 -2.988281 8.0625 -3.21875 Z M 9.046875 -0.453125 "/></g></g></g><g fill="#000000" fill-opacity="1"><g transform="translate(58.593338, 21.580657)"><g><path d="M 6.0625 -11.453125 C 7.9375 -11.453125 9.363281 -11.023438 10.34375 -10.171875 C 11.332031 -9.316406 11.828125 -8.007812 11.828125 -6.25 L 11.828125 0 L 8.140625 0 L 8.140625 -1.453125 C 7.578125 -0.359375 6.472656 0.1875 4.828125 0.1875 C 3.953125 0.1875 3.191406 0.0351562 2.546875 -0.265625 C 1.910156 -0.578125 1.429688 -0.988281 1.109375 -1.5 C 0.785156 -2.019531 0.625 -2.613281 0.625 -3.28125 C 0.625 -4.351562 1.03125 -5.179688 1.84375 -5.765625 C 2.664062 -6.359375 3.925781 -6.65625 5.625 -6.65625 L 7.875 -6.65625 C 7.800781 -7.84375 7.003906 -8.4375 5.484375 -8.4375 C 4.941406 -8.4375 4.394531 -8.347656 3.84375 -8.171875 C 3.289062 -8.003906 2.820312 -7.765625 2.4375 -7.453125 L 1.09375 -10.140625 C 1.71875 -10.554688 2.476562 -10.878906 3.375 -11.109375 C 4.269531 -11.335938 5.164062 -11.453125 6.0625 -11.453125 Z M 5.921875 -2.3125 C 6.378906 -2.3125 6.78125 -2.421875 7.125 -2.640625 C 7.46875 -2.859375 7.71875 -3.179688 7.875 -3.609375 L 7.875 -4.59375 L 6.171875 -4.59375 C 5.023438 -4.59375 4.453125 -4.210938 4.453125 -3.453125 C 4.453125 -3.109375 4.582031 -2.832031 4.84375 -2.625 C 5.101562 -2.414062 5.460938 -2.3125 5.921875 -2.3125 Z M 5.921875 -2.3125 "/></g></g></g><g fill="#000000" fill-opacity="1"><g transform="translate(71.638668, 21.580657)"><g><path d="M 11.953125 -3.265625 L 11.953125 0 L 0.625 0 L 0.625 -2.578125 L 6.0625 -7.671875 C 6.59375 -8.171875 6.945312 -8.59375 7.125 -8.9375 C 7.300781 -9.289062 7.390625 -9.648438 7.390625 -10.015625 C 7.390625 -10.484375 7.226562 -10.847656 6.90625 -11.109375 C 6.59375 -11.378906 6.132812 -11.515625 5.53125 -11.515625 C 4.988281 -11.515625 4.488281 -11.390625 4.03125 -11.140625 C 3.582031 -10.898438 3.21875 -10.550781 2.9375 -10.09375 L -0.125 -11.796875 C 0.445312 -12.742188 1.242188 -13.488281 2.265625 -14.03125 C 3.285156 -14.570312 4.5 -14.84375 5.90625 -14.84375 C 7.007812 -14.84375 7.988281 -14.660156 8.84375 -14.296875 C 9.695312 -13.929688 10.359375 -13.410156 10.828125 -12.734375 C 11.304688 -12.066406 11.546875 -11.289062 11.546875 -10.40625 C 11.546875 -9.625 11.375 -8.878906 11.03125 -8.171875 C 10.695312 -7.472656 10.046875 -6.679688 9.078125 -5.796875 L 6.34375 -3.265625 Z M 11.953125 -3.265625 "/></g></g></g><g clip-path="url(#41291bd637)"><g fill="#000000" fill-opacity="1"><g transform="translate(84.0816, 21.580657)"><g><path d="M 14.421875 -2.78125 L 12.265625 -2.78125 L 12.265625 0 L 8.25 0 L 8.25 -2.78125 L 0.5625 -2.78125 L 0.5625 -5.46875 L 7.09375 -14.546875 L 11.34375 -14.546875 L 5.421875 -6.046875 L 8.375 -6.046875 L 8.375 -8.515625 L 12.265625 -8.515625 L 12.265625 -6.046875 L 14.421875 -6.046875 Z M 14.421875 -2.78125 "/></g></g></g></g></g></g></g><g clip-path="url(#2f8dad32b1)"><g clip-path="url(#c053e2022c)"><g clip-path="url(#3f13abac18)"><path fill="#e03d3d" d="M 14.226562 14.269531 C 14.402344 14.082031 14.539062 13.875 14.632812 13.644531 C 14.726562 13.417969 14.777344 13.171875 14.789062 12.914062 C 14.796875 12.660156 14.75 12.40625 14.644531 12.15625 C 14.542969 11.910156 14.398438 11.699219 14.210938 11.519531 C 14.023438 11.34375 13.816406 11.210938 13.585938 11.113281 C 13.355469 11.019531 13.113281 10.96875 12.859375 10.960938 C 12.601562 10.953125 12.347656 11 12.101562 11.101562 C 11.851562 11.207031 11.640625 11.351562 11.460938 11.535156 C 11.285156 11.722656 11.152344 11.929688 11.058594 12.160156 C 10.960938 12.390625 10.910156 12.632812 10.902344 12.890625 C 10.894531 13.144531 10.941406 13.398438 11.042969 13.648438 C 11.144531 13.894531 11.292969 14.109375 11.476562 14.285156 C 11.664062 14.460938 11.871094 14.597656 12.105469 14.691406 C 12.332031 14.785156 12.574219 14.835938 12.832031 14.847656 C 13.085938 14.851562 13.339844 14.804688 13.589844 14.703125 C 13.835938 14.601562 14.050781 14.457031 14.226562 14.269531 " fill-opacity="1" fill-rule="nonzero"/></g></g></g><g clip-path="url(#6e760bf831)"><g clip-path="url(#b2cb4ffa88)"><g clip-path="url(#ae805503de)"><path fill="#e03d3d" d="M 22.667969 14.613281 C 22.4375 14.519531 22.195312 14.46875 21.9375 14.460938 C 21.683594 14.453125 21.429688 14.5 21.183594 14.601562 C 20.933594 14.707031 20.71875 14.851562 20.542969 15.035156 C 20.371094 15.222656 20.234375 15.429688 20.136719 15.660156 C 20.042969 15.890625 19.992188 16.132812 19.984375 16.390625 C 19.976562 16.644531 20.023438 16.898438 20.125 17.148438 C 20.226562 17.394531 20.375 17.609375 20.558594 17.785156 C 20.746094 17.960938 20.957031 18.097656 21.183594 18.191406 C 21.414062 18.285156 21.65625 18.335938 21.914062 18.347656 C 22.167969 18.355469 22.421875 18.308594 22.671875 18.203125 C 22.921875 18.101562 23.132812 17.957031 23.308594 17.769531 C 23.484375 17.582031 23.617188 17.375 23.714844 17.144531 C 23.808594 16.917969 23.863281 16.671875 23.867188 16.417969 C 23.875 16.160156 23.832031 15.90625 23.726562 15.660156 C 23.625 15.410156 23.480469 15.199219 23.292969 15.023438 C 23.105469 14.847656 22.898438 14.710938 22.667969 14.613281 " fill-opacity="1" fill-rule="nonzero"/></g></g></g><g clip-path="url(#6a87205f0f)"><g clip-path="url(#d1eaa026b5)"><g clip-path="url(#5d531cf4c2)"><path fill="#e03d3d" d="M 25.039062 16.445312 C 25.03125 16.855469 24.949219 17.242188 24.796875 17.609375 C 24.644531 17.976562 24.429688 18.308594 24.144531 18.601562 C 23.859375 18.894531 23.519531 19.125 23.121094 19.289062 C 22.71875 19.457031 22.316406 19.535156 21.90625 19.527344 C 21.496094 19.519531 21.109375 19.4375 20.742188 19.285156 C 20.375 19.132812 20.046875 18.914062 19.75 18.632812 C 19.457031 18.347656 19.226562 18.007812 19.0625 17.605469 C 18.894531 17.207031 18.820312 16.800781 18.828125 16.390625 C 18.835938 15.984375 18.914062 15.597656 19.066406 15.230469 C 19.21875 14.863281 19.4375 14.53125 19.722656 14.238281 C 20.003906 13.945312 20.34375 13.714844 20.746094 13.546875 C 21.144531 13.382812 21.550781 13.304688 21.960938 13.3125 C 22.367188 13.320312 22.753906 13.402344 23.121094 13.554688 C 23.488281 13.707031 23.820312 13.925781 24.113281 14.207031 C 24.40625 14.492188 24.636719 14.832031 24.804688 15.230469 C 24.96875 15.632812 25.046875 16.039062 25.039062 16.445312 Z M 17.144531 21.511719 L 15.929688 22.015625 L 17.433594 7.835938 L 18.652344 7.332031 Z M 11.664062 15.785156 C 11.296875 15.632812 10.964844 15.414062 10.667969 15.128906 C 10.378906 14.847656 10.144531 14.503906 9.980469 14.105469 C 9.816406 13.707031 9.738281 13.300781 9.746094 12.890625 C 9.753906 12.484375 9.835938 12.097656 9.984375 11.730469 C 10.140625 11.363281 10.355469 11.03125 10.640625 10.738281 C 10.921875 10.445312 11.265625 10.214844 11.664062 10.046875 C 12.0625 9.882812 12.46875 9.804688 12.878906 9.8125 C 13.285156 9.820312 13.675781 9.902344 14.042969 10.050781 C 14.40625 10.207031 14.738281 10.425781 15.03125 10.707031 C 15.328125 10.992188 15.558594 11.332031 15.722656 11.730469 C 15.886719 12.132812 15.964844 12.535156 15.957031 12.945312 C 15.949219 13.355469 15.867188 13.742188 15.71875 14.109375 C 15.5625 14.472656 15.347656 14.804688 15.0625 15.101562 C 14.78125 15.394531 14.4375 15.625 14.039062 15.789062 C 13.636719 15.953125 13.234375 16.035156 12.824219 16.023438 C 12.417969 16.015625 12.03125 15.9375 11.664062 15.785156 Z M 30.003906 11.585938 L 30.566406 9.460938 L 28.6875 8.3125 L 28.632812 6.113281 L 26.507812 5.542969 L 25.832031 3.449219 L 23.632812 3.503906 L 22.398438 1.683594 L 20.300781 2.351562 L 18.605469 0.953125 L 16.78125 2.183594 L 14.753906 1.324219 L 13.355469 3.019531 L 11.167969 2.761719 L 10.300781 4.785156 L 8.132812 5.152344 L 7.871094 7.339844 L 5.894531 8.304688 L 6.261719 10.472656 L 4.632812 11.957031 L 5.59375 13.9375 L 4.453125 15.816406 L 5.929688 17.445312 L 5.367188 19.570312 L 7.246094 20.71875 L 7.300781 22.917969 L 9.425781 23.488281 L 10.101562 25.582031 L 12.300781 25.527344 L 13.535156 27.347656 L 15.632812 26.679688 L 17.328125 28.078125 L 19.152344 26.847656 L 21.179688 27.707031 L 22.578125 26.007812 L 24.765625 26.269531 L 25.632812 24.246094 L 27.800781 23.875 L 28.0625 21.691406 L 30.039062 20.726562 L 29.675781 18.554688 L 31.300781 17.074219 L 30.339844 15.09375 L 31.484375 13.214844 L 30.003906 11.585938 " fill-opacity="1" fill-rule="nonzero"/></g></g></g></g></g></g></svg>